# ASF file generated by Tido's ASF writer for MATLAB.
:version 1.10
:name VICON
:units
  mass 1
  length 0.45000000000000001
  angle deg
:documentation
   .ast/.asf automatically generated from VICON data using
   VICON BodyBuilder and BodyLanguage model FoxedUp or BRILLIANT.MOD
:root
  axis xyz
  order tx ty tz rx ry rz 
  position 0 0 0
  orientation 0 0 0
:bonedata
  begin
    id 1
    name lhipjoint
    direction 0.44017800000000001 -0.82263900000000001 0.359871
    length 1.1390085000000001
    axis 0 0 0 xyz
  end
  begin
    id 2
    name lfemur
    direction 0.34201999999999999 -0.939693 0
    length 3.5465939999999998
    axis 0 0 20 xyz
    dof rx ry rz 
    limits (-160 20)
           (-70 70)
           (-60 70)
  end
  begin
    id 3
    name ltibia
    direction 0.34201999999999999 -0.939693 0
    length 3.7970234999999999
    axis 0 0 20 xyz
    dof rx 
    limits (-10 170)
  end
  begin
    id 4
    name lfoot
    direction 0.088635099999999994 -0.24352299999999999 0.96583699999999995
    length 1.1853629999999999
    axis -90 7.62852e-016 20 xyz
    dof rx rz 
    limits (-45 90)
           (-70 20)
  end
  begin
    id 5
    name ltoes
    direction 1.53703e-011 -4.2171700000000001e-011 1
    length 0.59142150000000004
    axis -90 7.62852e-016 20 xyz
    dof rx 
    limits (-90 20)
  end
  begin
    id 6
    name rhipjoint
    direction -0.399779 -0.83977299999999999 0.367367
    length 1.115766
    axis 0 0 0 xyz
  end
  begin
    id 7
    name rfemur
    direction -0.34201999999999999 -0.939693 0
    length 3.4866269999999999
    axis 0 0 -20 xyz
    dof rx ry rz 
    limits (-160 20)
           (-70 70)
           (-70 60)
  end
  begin
    id 8
    name rtibia
    direction -0.34201999999999999 -0.939693 0
    length 3.9349440000000002
    axis 0 0 -20 xyz
    dof rx 
    limits (-10 170)
  end
  begin
    id 9
    name rfoot
    direction -0.108514 -0.29813899999999999 0.94833400000000001
    length 1.1974590000000001
    axis -90 -7.62852e-016 -20 xyz
    dof rx rz 
    limits (-45 90)
           (-20 70)
  end
  begin
    id 10
    name rtoes
    direction -1.5339199999999999e-011 -4.2207699999999999e-011 1
    length 0.59392350000000005
    axis -90 -7.62852e-016 -20 xyz
    dof rx 
    limits (-90 20)
  end
  begin
    id 11
    name lowerback
    direction 0.011325699999999999 0.99986600000000003 0.0118602
    length 1.164123
    axis 0 0 0 xyz
    dof rx ry rz 
    limits (-20 45)
           (-30 30)
           (-30 30)
  end
  begin
    id 12
    name upperback
    direction -0.016474699999999998 0.99519299999999999 -0.096537499999999998
    length 1.135656
    axis 0 0 0 xyz
    dof rx ry rz 
    limits (-20 45)
           (-30 30)
           (-30 30)
  end
  begin
    id 13
    name thorax
    direction -0.019430099999999999 0.99433000000000005 -0.10455200000000001
    length 1.1524455
    axis 0 0 0 xyz
    dof rx ry rz 
    limits (-20 45)
           (-30 30)
           (-30 30)
  end
  begin
    id 14
    name lowerneck
    direction 0.014854300000000001 0.995587 -0.092657000000000003
    length 0.772119
    axis 0 0 0 xyz
    dof rx ry rz 
    limits (-20 45)
           (-30 30)
           (-30 30)
  end
  begin
    id 15
    name upperneck
    direction -0.0135467 0.99365599999999998 -0.111639
    length 0.76021650000000007
    axis 0 0 0 xyz
    dof rx ry rz 
    limits (-20 45)
           (-30 30)
           (-30 30)
  end
  begin
    id 16
    name head
    direction -0.0061534900000000002 0.99954699999999996 -0.029447999999999998
    length 0.78578999999999999
    axis 0 0 0 xyz
    dof rx ry rz 
    limits (-20 45)
           (-30 30)
           (-30 30)
  end
  begin
    id 17
    name lclavicle
    direction 0.98826700000000001 0.14988499999999999 0.029371299999999999
    length 2.012499
    axis 0 0 0 xyz
    dof ry rz 
    limits (-20 10)
           (0 20)
  end
  begin
    id 18
    name lhumerus
    direction 1 -4.4898600000000001e-011 -1.1483300000000001e-027
    length 2.4171659999999999
    axis 180 -30 -90 xyz
    dof rx ry rz 
    limits (-60 90)
           (-90 90)
           (-90 90)
  end
  begin
    id 19
    name lradius
    direction 0.99999800000000005 0.00170963 -0.00098705499999999992
    length 1.773954
    axis 180 -30 -90 xyz
    dof rx 
    limits (-10 170)
  end
  begin
    id 20
    name lwrist
    direction 0.99999800000000005 7.53149e-005 -0.00194706
    length 0.88697700000000002
    axis 4.6505600000000004e-015 90 90 xyz
    dof ry 
    limits (-180 0)
  end
  begin
    id 21
    name lhand
    direction 1 -4.48973e-011 -1.3174599999999999e-026
    length 0.5306265
    axis 8.4064999999999996e-015 90 90 xyz
    dof rx rz 
    limits (-90 90)
           (-45 45)
  end
  begin
    id 22
    name lfingers
    direction 1 -4.49107e-011 -2.6349199999999999e-026
    length 0.42780555000000003
    axis 1.6812999999999999e-014 90 90 xyz
    dof rx 
    limits (0 90)
  end
  begin
    id 23
    name lthumb
    direction 0.70710700000000004 -6.3504800000000005e-011 0.70710700000000004
    length 0.6142455
    axis -90 45 2.8529899999999998e-015 xyz
    dof rx rz 
    limits (-45 45)
           (-45 45)
  end
  begin
    id 24
    name rclavicle
    direction -0.996699 0.064289499999999999 -0.049572499999999999
    length 2.0817494999999999
    axis 0 0 0 xyz
    dof ry rz 
    limits (-10 20)
           (-20 0)
  end
  begin
    id 25
    name rhumerus
    direction -1 -4.4891899999999998e-011 -2.4105900000000001e-027
    length 2.474145
    axis 180 30 90 xyz
    dof rx ry rz 
    limits (-90 60)
           (-90 90)
           (-90 90)
  end
  begin
    id 26
    name rradius
    direction -0.99999899999999997 0.0011810099999999999 -0.00068185800000000003
    length 1.5677145000000001
    axis 180 30 90 xyz
    dof rx 
    limits (-10 170)
  end
  begin
    id 27
    name rwrist
    direction -0.99999899999999997 0.000321823 -0.00132288
    length 0.78385499999999997
    axis 4.6505600000000004e-015 -90 -90 xyz
    dof ry 
    limits (-180 0)
  end
  begin
    id 28
    name rhand
    direction -1 -4.4902199999999998e-011 -1.3174599999999999e-026
    length 0.60719400000000001
    axis 8.4064999999999996e-015 -90 -90 xyz
    dof rx rz 
    limits (-90 90)
           (-45 45)
  end
  begin
    id 29
    name rfingers
    direction -1 -4.4917800000000002e-011 -2.6349199999999999e-026
    length 0.48953249999999998
    axis 1.6812999999999999e-014 -90 -90 xyz
    dof rx 
    limits (0 90)
  end
  begin
    id 30
    name rthumb
    direction -0.70710700000000004 -6.3471300000000002e-011 0.70710700000000004
    length 0.70287750000000004
    axis -90 -45 -2.8529899999999998e-015 xyz
    dof rx rz 
    limits (-45 45)
           (-45 45)
  end
:hierarchy
begin
  root lhipjoint rhipjoint lowerback 
  lhipjoint lfemur 
  lfemur ltibia 
  ltibia lfoot 
  lfoot ltoes 
  rhipjoint rfemur 
  rfemur rtibia 
  rtibia rfoot 
  rfoot rtoes 
  lowerback upperback 
  upperback thorax 
  thorax lowerneck lclavicle rclavicle 
  lowerneck upperneck 
  upperneck head 
  lclavicle lhumerus 
  lhumerus lradius 
  lradius lwrist 
  lwrist lhand lthumb 
  lhand lfingers 
  rclavicle rhumerus 
  rhumerus rradius 
  rradius rwrist 
  rwrist rhand rthumb 
  rhand rfingers 
end

# AMC file generated by Tido's AMC writer for MATLAB on 27-Nov-2005 at 18:24:20
# Corresponding ASF file: S:\data_MoCap\MoCaDaDB\HDM\Bonn_ASF_AMC_Use IK_on\björn\bjorn.asf
# Number of frames: 542
# Sampling rate: 120
:fully-specified
:degrees
102
root -6.3223649999999996 8.4136950000000006 -8.7538499999999999 179.87299999999999 27.007999999999999 539.73199999999997 
lfemur 7.3067099999999998 10.0929 -5.9770000000000003 
ltibia 52.682099999999998 
lfoot 18.583600000000001 -3.5698300000000001 
ltoes -29.8293 
rfemur -30.3005 -9.1954200000000004 27.517700000000001 
rtibia 41.560299999999998 
rfoot -10.030799999999999 6.8959200000000003 
rtoes 2.5908699999999998 
lowerback -0.65008299999999997 -4.3158000000000003 -2.7839900000000002 
upperback 8.6470099999999999 -5.0306800000000003 -1.3448899999999999 
thorax 9.6321200000000005 -2.4003199999999998 -0.30149300000000001 
lowerneck 7.7041000000000004 -17.0288 -1.71804 
upperneck 3.1638999999999999 -22.718599999999999 15.8194 
head 1.7766900000000001 -11.2883 4.7976000000000001 
lclavicle 6.9574600000000005e-014 -2.4649300000000001e-014 
lhumerus -34.475700000000003 -0.41506100000000001 82.824600000000004 
lradius 24.555099999999999 
lwrist -17.8308 
lhand -18.2286 -4.0181899999999997 
lfingers 7.1250200000000001 
lthumb 8.0497499999999995 25.808499999999999 
rclavicle 6.9574600000000005e-014 -2.4649300000000001e-014 
rhumerus -33.047600000000003 -30.671900000000001 -83.2346 
rradius 17.035799999999998 
rwrist 23.411100000000001 
rhand -1.8932100000000001 9.5230200000000007 
rfingers 7.1250200000000001 
rthumb 23.7758 -19.026 
103
root -6.2773650000000005 8.4242699999999999 -8.8075799999999997 179.73599999999999 27.7972 539.83100000000002 
lfemur 6.0081499999999997 10.316599999999999 -5.7940800000000001 
ltibia 54.7943 
lfoot 18.505400000000002 -3.6945100000000002 
ltoes -29.297000000000001 
rfemur -29.366499999999998 -8.7620799999999992 27.706499999999998 
rtibia 41.311599999999999 
rfoot -10.430899999999999 7.2586500000000003 
rtoes 2.4687000000000001 
lowerback -0.61262799999999995 -4.1942599999999999 -2.6594699999999998 
upperback 8.7565500000000007 -4.8660100000000002 -1.3165 
thorax 9.7182700000000004 -2.3079299999999998 -0.32613999999999999 
lowerneck 7.5301799999999997 -17.000900000000001 -1.62018 
upperneck 3.2304900000000001 -22.688600000000001 15.6587 
head 1.7919799999999999 -11.2637 4.7246600000000001 
lclavicle -4.6515599999999997e-014 -2.0673600000000001e-014 
lhumerus -34.5916 -1.05124 83.356899999999996 
lradius 24.462900000000001 
lwrist -17.6388 
lhand -18.086500000000001 -4.1367000000000003 
lfingers 7.1250200000000001 
lthumb 8.1868800000000004 25.684699999999999 
rclavicle -4.6515599999999997e-014 -2.0673600000000001e-014 
rhumerus -32.397599999999997 -29.7059 -83.932699999999997 
rradius 17.003599999999999 
rwrist 23.0471 
rhand -2.0002200000000001 9.6074599999999997 
rfingers 7.1250200000000001 
rthumb 23.673200000000001 -18.954799999999999 
104
root -6.2338050000000003 8.4337650000000011 -8.8604550000000017 179.578 28.668399999999998 539.88300000000004 
lfemur 4.7520600000000002 10.668799999999999 -5.6429099999999996 
ltibia 56.720100000000002 
lfoot 18.075600000000001 -3.8665699999999998 
ltoes -28.840900000000001 
rfemur -28.436199999999999 -8.3201199999999993 27.853300000000001 
rtibia 41.045200000000001 
rfoot -10.8002 7.6571600000000002 
rtoes 2.3876499999999998 
lowerback -0.55383199999999999 -4.0448700000000004 -2.5600999999999998 
upperback 8.8556299999999997 -4.6619900000000003 -1.3046500000000001 
thorax 9.78078 -2.1974900000000002 -0.34861799999999998 
lowerneck 7.3954199999999997 -16.964200000000002 -1.52695 
upperneck 3.2371599999999998 -22.639099999999999 15.5227 
head 1.7848200000000001 -11.2347 4.6665400000000004 
lclavicle 3.3196999999999997e-014 1.5902800000000001e-014 
lhumerus -34.743600000000001 -1.40096 83.849000000000004 
lradius 24.384599999999999 
lwrist -17.775400000000001 
lhand -17.962499999999999 -4.1421900000000003 
lfingers 7.1250200000000001 
lthumb 8.3064900000000002 25.674499999999998 
rclavicle 3.3196999999999997e-014 1.5902800000000001e-014 
rhumerus -31.876100000000001 -29.101800000000001 -84.486199999999997 
rradius 16.9925 
rwrist 23.137 
rhand -2.2304300000000001 9.7337500000000006 
rfingers 7.1250200000000001 
rthumb 23.452400000000001 -18.8569 
105
root -6.1924049999999999 8.4422250000000005 -8.9117999999999995 179.399 29.614699999999999 539.86099999999999 
lfemur 3.4839699999999998 11.0435 -5.6127000000000002 
ltibia 58.486199999999997 
lfoot 17.3413 -3.82422 
ltoes -28.029199999999999 
rfemur -27.5197 -7.8146599999999999 27.920400000000001 
rtibia 40.7714 
rfoot -11.1097 8.0875500000000002 
rtoes 2.83345 
lowerback -0.46839799999999998 -3.8799100000000002 -2.4880900000000001 
upperback 8.9425600000000003 -4.4327100000000002 -1.33595 
thorax 9.8128499999999992 -2.0747 -0.39701599999999998 
lowerneck 7.2388500000000002 -16.925999999999998 -1.3737699999999999 
upperneck 3.2721100000000001 -22.584900000000001 15.3188 
head 1.77515 -11.2006 4.5804 
lclavicle 2.5722699999999999e-013 -4.1347200000000001e-014 
lhumerus -34.981299999999997 -1.9359299999999999 84.3506 
lradius 24.402200000000001 
lwrist -17.708200000000001 
lhand -17.864000000000001 -4.2099099999999998 
lfingers 7.1250200000000001 
lthumb 8.4015699999999995 25.603000000000002 
rclavicle 2.5722699999999999e-013 -4.1347200000000001e-014 
rhumerus -31.261500000000002 -28.354900000000001 -85.116500000000002 
rradius 16.957000000000001 
rwrist 23.108599999999999 
rhand -2.4879199999999999 9.8350299999999997 
rfingers 7.1250200000000001 
rthumb 23.205300000000001 -18.786999999999999 
